<svg xmlns="http://www.w3.org/2000/svg" viewBox="0 0 288 288"><title>ksonnet-white</title><path d="M96.07,132.37l45-56h71.63L184,110.06c.38-.32.76-.64,1.16-1Q198.9,98.34,221.1,98.34q23.87,0,38.37,10.82a36.11,36.11,0,0,1,10.9,12.58L256.58,61.35,144,7.13l-54,26V140.35Z" style="fill:#25a9e0"/><polygon points="3.61 183.17 30.28 216.62 30.28 66.31 3.61 183.17" style="fill:#25a9e0"/><polygon points="106.88 196.74 90.04 213.58 90.04 268.19 71.41 268.19 81.52 280.87 206.48 280.87 216.59 268.19 148.73 268.19 106.88 196.74" style="fill:#25a9e0"/><path d="M236.26,137.61q0-14.5-15.28-14.5a15.15,15.15,0,0,0-9.93,3.29,10.19,10.19,0,0,0-4,8.2q0,5,4.91,8.14t15.67,5.13a135.43,135.43,0,0,1,18.91,4.8q27.22,9.37,27.22,33.57A30.79,30.79,0,0,1,270.2,201l14.19-17.79L274,137.49s0,.08,0,.11Z" style="fill:#25a9e0"/><path d="M259.08,213.12q-14.67,10.37-38,10.37a65.64,65.64,0,0,1-27.66-5.58,49.13,49.13,0,0,1-14.33-9.75l37.81,59.62L263,210A43.18,43.18,0,0,1,259.08,213.12Z" style="fill:#25a9e0"/><path d="M202.8,182.56q.22,8.37,5.58,12.21t13.72,3.85q7.7,0,11.54-3.12a10,10,0,0,0,3.85-8.14q0-4.8-5-7.7t-19.07-6q-14.05-3.12-23.2-8.2a38.86,38.86,0,0,1-13.94-12.33,29.43,29.43,0,0,1-4.8-16.62,33,33,0,0,1,4.24-16.67l-30.17,35.42,23.79,37.51a32.18,32.18,0,0,1-1.66-10.2Z" style="fill:#25a9e0"/><path d="M193.43,217.92a65.64,65.64,0,0,0,27.66,5.58q23.31,0,38-10.37a43.18,43.18,0,0,0,4-3.17l7.17-9a30.79,30.79,0,0,0,3.54-14.73q0-24.2-27.22-33.57a135.43,135.43,0,0,0-18.91-4.8q-10.76-2-15.67-5.13T207,134.59a10.19,10.19,0,0,1,4-8.2A15.15,15.15,0,0,1,221,123.1q15.28,0,15.28,14.5H274s0-.08,0-.11l-3.6-15.75a36.11,36.11,0,0,0-10.9-12.58Q245,98.34,221.1,98.34q-22.2,0-35.92,10.76c-.4.31-.78.64-1.16,1l28.72-33.72H141.1l-45,56-6,8V33.12L31.42,61.35l-1.13,5V216.62l41.13,51.57H90V213.58l16.84-16.84,41.85,71.46h67.86l.32-.41L179.1,208.17A49.13,49.13,0,0,0,193.43,217.92Zm-47.9-62.67,30.17-35.42a33,33,0,0,0-4.24,16.67,29.43,29.43,0,0,0,4.8,16.62,38.86,38.86,0,0,0,13.94,12.33q9.15,5.08,23.2,8.2t19.07,6q5,2.9,5,7.7a10,10,0,0,1-3.85,8.14q-3.85,3.12-11.54,3.12-8.37,0-13.72-3.85t-5.58-12.21H167.67a32.18,32.18,0,0,0,1.66,10.2Z" style="fill:#fff"/></svg>